<?xml version="1.0" encoding="UTF-8"?>
<svg id="Layer_2" data-name="Layer 2" xmlns="http://www.w3.org/2000/svg" viewBox="0 0 1139.42 175.88">
  <g id="Layer_1-2" data-name="Layer 1">
    <g>
      <path d="m188.68,63.48v76.47h-28.81v-75.59c0-18.13-10.66-26.48-24.89-26.48-15.65,0-26.85,8.53-26.85,28.27v73.81h-28.81v-75.59c0-18.13-9.61-26.48-23.83-26.48-15.29,0-26.67,8.53-26.67,28.27v73.81H0V15.46h27.92v15.29c7.47-11.02,20.27-17.42,36.81-17.42s30.23,6.57,37.17,18.32c8.54-11.92,23.12-18.32,40.19-18.32,28.99,0,46.59,17.25,46.59,50.14Z"/>
      <path d="m312.39,44.28v95.67h-26.5v-11.02c-6.94,8.36-17.07,12.44-29.87,12.44-27.03,0-47.84-19.2-47.84-49.26s20.8-49.26,47.84-49.26c11.73,0,21.69,3.74,28.63,11.57v-10.14h27.74Zm-27.21,47.83c0-16.54-10.67-26.5-24.37-26.5s-24.54,9.96-24.54,26.5,10.67,26.5,24.54,26.5,24.37-9.96,24.37-26.5Z"/>
      <path d="m436.76,44.28v79.67c0,35.56-19.2,51.93-53.71,51.93-18.13,0-35.74-4.45-46.94-13.16l11.03-19.92c8.18,6.59,21.52,10.86,33.78,10.86,19.56,0,28.09-8.89,28.09-26.15v-4.08c-7.28,7.99-17.78,11.92-30.22,11.92-26.5,0-47.84-18.32-47.84-46.24s21.34-46.25,47.84-46.25c13.34,0,24.36,4.45,31.65,13.7v-12.26h26.31Zm-27.38,44.82c0-14.06-10.5-23.49-25.08-23.49s-25.25,9.43-25.25,23.49,10.67,23.47,25.25,23.47,25.08-9.43,25.08-23.47Z"/>
      <path d="m459.23,15.46c0-8.72,6.94-15.46,17.25-15.46s17.25,6.4,17.25,14.93c0,9.25-6.92,16.02-17.25,16.02s-17.25-6.76-17.25-15.48Zm3.37,28.82h27.74v95.67h-27.74V44.28Z"/>
      <path d="m509.06,92.11c0-28.8,22.23-49.26,53.34-49.26,20.1,0,35.93,8.72,42.86,24.37l-21.52,11.56c-5.15-9.06-12.8-13.16-21.52-13.16-14.05,0-25.08,9.79-25.08,26.5s11.03,26.5,25.08,26.5c8.72,0,16.36-3.91,21.52-13.16l21.52,11.74c-6.94,15.29-22.76,24.18-42.86,24.18-31.12,0-53.34-20.45-53.34-49.26Z"/>
      <path d="m717.18,44.28v95.67h-26.5v-11.02c-6.94,8.36-17.07,12.44-29.87,12.44-27.03,0-47.84-19.2-47.84-49.26s20.81-49.26,47.84-49.26c11.73,0,21.69,3.74,28.63,11.57v-10.14h27.74Zm-27.21,47.83c0-16.54-10.67-26.5-24.37-26.5s-24.54,9.96-24.54,26.5,10.67,26.5,24.54,26.5,24.37-9.96,24.37-26.5Z"/>
      <path d="m742.85,108.3V7.99h27.74v98.7c0,8.18,4.27,12.63,11.92,12.63,3.03,0,6.23-.88,7.82-1.77l1.25,21.52c-4.79,1.59-9.6,2.3-14.39,2.3-21.52,0-34.33-11.73-34.33-33.07Z"/>
      <path d="m796.07,131.06l9.24-19.92c8.54,5.52,21.52,9.25,33.26,9.25,12.8,0,17.61-3.37,17.61-8.72,0-15.64-57.8.36-57.8-37.88,0-18.13,16.36-30.94,44.28-30.94,13.16,0,27.74,3.03,36.82,8.37l-9.25,19.74c-9.43-5.34-18.85-7.11-27.57-7.11-12.44,0-17.78,3.91-17.78,8.89,0,16.36,57.8.54,57.8,38.23,0,17.78-16.55,30.41-45.18,30.41-16.17,0-32.54-4.45-41.43-10.31Z"/>
      <path d="m892.67,92.11c0-28.8,22.23-49.26,52.64-49.26s52.46,20.46,52.46,49.26-22.05,49.26-52.46,49.26-52.64-20.45-52.64-49.26Zm77.01,0c0-16.54-10.5-26.5-24.37-26.5s-24.54,9.96-24.54,26.5,10.67,26.5,24.54,26.5,24.37-9.96,24.37-26.5Z"/>
      <path d="m1043.36,46.41h24.54v21.34h-23.83v72.2h-27.74V42.14c0-21.52,13.16-35.56,37-35.56,7.99,0,16,1.61,21.16,5.15l-7.28,20.1c-3.03-2.13-6.94-3.37-11.21-3.37-8.18,0-12.63,4.45-12.63,13.87v4.08Z"/>
      <path d="m1139.42,135.33c-5.69,4.08-14.05,6.04-22.4,6.04-22.76,0-35.75-11.56-35.75-34.32V23.11h27.74v23.3h23.66v21.34h-23.66v38.94c0,8.18,4.27,12.63,11.74,12.63,4.08,0,8.18-1.25,11.38-3.55l7.28,19.56Z"/>
    </g>
  </g>
</svg>