<?xml version="1.0" encoding="UTF-8"?>
<svg id="Layer_2" data-name="Layer 2" xmlns="http://www.w3.org/2000/svg" viewBox="0 0 1313.74 237.08">
  <defs>
    <style>
      .cls-1 {
        fill: #350700;
      }
    </style>
  </defs>
  <g id="Layer_1-2" data-name="Layer 1">
    <g>
      <path class="cls-1" d="m0,184.11V7.57h20.18l73.39,120.81h-13.12L153.85,7.57h20.18v176.55h-29V58.51l6.56,1.77-54.48,89.53h-20.18L22.45,60.28l6.56-1.77v125.6H0Z"/>
      <path class="cls-1" d="m259.27,186.63c-10.93,0-20.81-2.77-29.63-8.32s-15.81-13.07-20.93-22.57c-5.13-9.5-7.69-20.13-7.69-31.91s2.56-22.66,7.69-32.16c5.13-9.5,12.11-17.06,20.93-22.7,8.83-5.63,18.7-8.45,29.63-8.45,9.25,0,17.44,1.98,24.59,5.93,7.14,3.95,12.82,9.38,17.02,16.27,4.2,6.9,6.31,14.71,6.31,23.46v34.8c0,8.75-2.06,16.56-6.18,23.46-4.12,6.9-9.8,12.32-17.02,16.27-7.23,3.95-15.47,5.93-24.72,5.93Zm4.54-26.23c10.25,0,18.54-3.45,24.84-10.34,6.3-6.89,9.46-15.72,9.46-26.48,0-7.23-1.43-13.62-4.29-19.17-2.86-5.55-6.85-9.88-11.98-12.99-5.13-3.11-11.14-4.67-18.03-4.67s-12.65,1.56-17.78,4.67c-5.13,3.11-9.17,7.44-12.11,12.99-2.94,5.55-4.41,11.94-4.41,19.17s1.47,13.62,4.41,19.17c2.94,5.55,6.98,9.88,12.11,12.99,5.13,3.11,11.05,4.67,17.78,4.67Zm32.54,23.71v-32.54l4.79-29.51-4.79-29.26v-29.76h27.74v121.06h-27.74Z"/>
      <path class="cls-1" d="m404.04,181.59c-10.76,0-20.47-2.65-29.13-7.95-8.66-5.3-15.47-12.57-20.43-21.82-4.96-9.24-7.44-19.59-7.44-31.02s2.48-21.69,7.44-30.77c4.96-9.08,11.77-16.27,20.43-21.56,8.66-5.3,18.37-7.94,29.13-7.94,9.58,0,17.99,1.94,25.22,5.8,7.23,3.87,12.86,9.21,16.9,16.02s6.05,14.75,6.05,23.83v29.76c0,8.91-2.06,16.81-6.18,23.71-4.12,6.9-9.8,12.28-17.02,16.14-7.23,3.87-15.55,5.8-24.97,5.8Zm1.26,55.49c-12.78,0-23.96-2.31-33.54-6.94-9.58-4.63-17.32-11.14-23.2-19.55l18.16-18.16c4.88,6.05,10.42,10.59,16.65,13.62,6.22,3.03,13.7,4.54,22.45,4.54,10.93,0,19.59-2.82,25.98-8.45,6.39-5.64,9.58-13.33,9.58-23.08v-29.76l4.79-26.73-4.79-26.99v-32.54h27.74v116.02c0,11.6-2.69,21.73-8.07,30.39-5.38,8.66-12.86,15.42-22.45,20.3-9.58,4.88-20.68,7.31-33.29,7.31Zm4.29-81.72c6.72,0,12.61-1.43,17.65-4.29,5.04-2.86,8.95-6.85,11.73-11.98,2.77-5.13,4.16-11.14,4.16-18.03s-1.39-12.9-4.16-18.03c-2.77-5.13-6.68-9.12-11.73-11.98-5.04-2.86-10.93-4.29-17.65-4.29s-12.65,1.43-17.78,4.29c-5.13,2.86-9.12,6.85-11.98,11.98-2.86,5.13-4.29,11.14-4.29,18.03s1.43,12.7,4.29,17.91c2.86,5.21,6.85,9.25,11.98,12.11,5.13,2.86,11.05,4.29,17.78,4.29Z"/>
      <path class="cls-1" d="m514,40.86c-4.71,0-8.62-1.6-11.73-4.79-3.11-3.19-4.67-7.14-4.67-11.85s1.55-8.66,4.67-11.85c3.11-3.19,7.02-4.79,11.73-4.79s8.83,1.6,11.85,4.79c3.03,3.2,4.54,7.15,4.54,11.85s-1.51,8.66-4.54,11.85c-3.03,3.2-6.98,4.79-11.85,4.79Zm-13.87,143.26V63.05h27.74v121.06h-27.74Z"/>
      <path class="cls-1" d="m614.63,186.63c-11.94,0-22.74-2.77-32.41-8.32-9.67-5.55-17.28-13.12-22.82-22.7-5.55-9.58-8.32-20.26-8.32-32.03s2.77-22.66,8.32-32.16c5.55-9.5,13.15-17.02,22.82-22.57,9.67-5.55,20.47-8.32,32.41-8.32,9.42,0,18.2,1.81,26.36,5.42,8.15,3.62,15.09,8.79,20.81,15.51l-18.16,18.41c-3.53-4.2-7.78-7.35-12.74-9.46-4.96-2.1-10.38-3.15-16.27-3.15-6.9,0-12.99,1.56-18.29,4.67-5.3,3.11-9.42,7.36-12.36,12.74-2.94,5.38-4.41,11.69-4.41,18.92s1.47,13.33,4.41,18.79c2.94,5.46,7.06,9.75,12.36,12.86,5.3,3.11,11.39,4.67,18.29,4.67,5.88,0,11.31-1.05,16.27-3.15,4.96-2.1,9.21-5.25,12.74-9.46l18.16,18.41c-5.72,6.73-12.65,11.9-20.81,15.51-8.16,3.61-16.94,5.42-26.36,5.42Z"/>
      <path class="cls-1" d="m732.41,186.63c-10.93,0-20.81-2.77-29.63-8.32s-15.81-13.07-20.93-22.57c-5.13-9.5-7.69-20.13-7.69-31.91s2.56-22.66,7.69-32.16c5.13-9.5,12.11-17.06,20.93-22.7,8.83-5.63,18.7-8.45,29.63-8.45,9.25,0,17.44,1.98,24.59,5.93,7.14,3.95,12.82,9.38,17.02,16.27,4.2,6.9,6.31,14.71,6.31,23.46v34.8c0,8.75-2.06,16.56-6.18,23.46-4.12,6.9-9.8,12.32-17.02,16.27-7.23,3.95-15.47,5.93-24.72,5.93Zm4.54-26.23c10.25,0,18.54-3.45,24.84-10.34,6.3-6.89,9.46-15.72,9.46-26.48,0-7.23-1.43-13.62-4.29-19.17-2.86-5.55-6.85-9.88-11.98-12.99-5.13-3.11-11.14-4.67-18.03-4.67s-12.65,1.56-17.78,4.67c-5.13,3.11-9.17,7.44-12.11,12.99-2.94,5.55-4.41,11.94-4.41,19.17s1.47,13.62,4.41,19.17c2.94,5.55,6.98,9.88,12.11,12.99,5.13,3.11,11.05,4.67,17.78,4.67Zm32.54,23.71v-32.54l4.79-29.51-4.79-29.26v-29.76h27.74v121.06h-27.74Z"/>
      <path class="cls-1" d="m827.99,184.11V2.52h27.74v181.59h-27.74Z"/>
      <path class="cls-1" d="m926.1,186.63c-6.73,0-13.2-.88-19.42-2.65-6.22-1.77-11.94-4.29-17.15-7.57-5.21-3.28-9.75-7.27-13.62-11.98l17.65-17.66c4.2,4.88,9.04,8.54,14.5,10.97,5.46,2.44,11.64,3.66,18.54,3.66,6.22,0,10.93-.92,14.12-2.77,3.19-1.85,4.79-4.54,4.79-8.07s-1.51-6.56-4.54-8.58-6.94-3.74-11.73-5.17c-4.79-1.43-9.84-2.9-15.13-4.41-5.3-1.51-10.34-3.57-15.13-6.18-4.79-2.6-8.7-6.18-11.73-10.72-3.03-4.54-4.54-10.42-4.54-17.65,0-7.73,1.8-14.38,5.42-19.92,3.61-5.55,8.74-9.84,15.38-12.86,6.64-3.03,14.58-4.54,23.83-4.54,9.75,0,18.37,1.73,25.85,5.17,7.48,3.45,13.75,8.62,18.79,15.51l-17.65,17.66c-3.53-4.37-7.57-7.65-12.11-9.84-4.54-2.18-9.75-3.28-15.64-3.28-5.55,0-9.84.84-12.86,2.52-3.03,1.68-4.54,4.12-4.54,7.31,0,3.37,1.51,5.97,4.54,7.82,3.03,1.85,6.94,3.45,11.73,4.79,4.79,1.35,9.84,2.82,15.13,4.41,5.3,1.6,10.34,3.78,15.13,6.56,4.79,2.77,8.7,6.47,11.73,11.1,3.03,4.63,4.54,10.64,4.54,18.03,0,11.77-4.12,21.1-12.36,28-8.24,6.9-19.42,10.34-33.54,10.34Z"/>
      <path class="cls-1" d="m1050.44,186.63c-11.77,0-22.45-2.81-32.03-8.45-9.58-5.63-17.19-13.24-22.82-22.83-5.64-9.58-8.45-20.26-8.45-32.03s2.81-22.36,8.45-31.78c5.63-9.42,13.24-16.94,22.82-22.57,9.58-5.63,20.26-8.45,32.03-8.45s22.7,2.77,32.28,8.32c9.58,5.55,17.19,13.08,22.82,22.57,5.63,9.5,8.45,20.14,8.45,31.9s-2.82,22.45-8.45,32.03c-5.63,9.58-13.24,17.19-22.82,22.83-9.58,5.64-20.35,8.45-32.28,8.45Zm0-26.73c6.89,0,12.99-1.55,18.29-4.67,5.3-3.11,9.41-7.44,12.36-12.99,2.94-5.55,4.41-11.85,4.41-18.92s-1.51-13.28-4.54-18.66c-3.03-5.38-7.15-9.62-12.36-12.74-5.21-3.11-11.27-4.67-18.16-4.67s-12.74,1.56-18.03,4.67c-5.3,3.11-9.42,7.36-12.36,12.74-2.94,5.38-4.41,11.6-4.41,18.66s1.47,13.37,4.41,18.92c2.94,5.55,7.06,9.88,12.36,12.99,5.3,3.11,11.31,4.67,18.03,4.67Z"/>
      <path class="cls-1" d="m1124.59,88.27v-25.22h93.32v25.22h-93.32Zm29,95.84V47.16c0-9.24,2.06-17.4,6.18-24.46,4.12-7.06,9.84-12.61,17.15-16.65,7.31-4.04,15.76-6.05,25.35-6.05,7.4,0,13.7,1.26,18.92,3.78,5.21,2.52,10.09,6.14,14.63,10.85l-17.91,17.91c-2.02-2.02-4.2-3.61-6.56-4.79-2.36-1.17-5.38-1.77-9.08-1.77-6.73,0-11.9,1.81-15.51,5.42-3.62,3.62-5.42,8.79-5.42,15.51v137.2h-27.74Z"/>
      <path class="cls-1" d="m1227.99,88.27v-25.22h85.75v25.22h-85.75Zm29,95.84V12.61h27.74v171.5h-27.74Z"/>
    </g>
  </g>
</svg>